<svg xmlns="http://www.w3.org/2000/svg" viewBox="0 0 32 32" width="32" height="32">
  <!-- الخلفية الدائرية البيضاء الشفافة الخفيفة المطابقة لأيقونة جيت هاب الرسمية -->
  <circle cx="16" cy="16" r="16" fill="#FFFFFF" fill-opacity="0.1"/>
  <!-- مسار لوجو جيت هاب أكشنز المفرغ باللون الأبيض -->
  <path d="M16 4C9.37 4 4 9.37 4 16c0 5.3 3.438 9.8 8.207 11.387.6.11.82-.26.82-.577v-2.234c-3.338.726-4.033-1.416-4.033-1.416-.546-1.387-1.333-1.756-1.333-1.756-1.09-.744.083-.73.083-.73 1.205.085 1.839 1.237 1.839 1.237 1.07 1.834 2.807 1.304 3.492.997.107-.775.418-1.305.762-1.604-2.665-.3-5.466-1.332-5.466-5.93 0-1.31.465-2.38 1.233-3.22-.124-.303-.535-1.524.115-3.176 0 0 1.005-.322 3.3 1.23.96-.267 1.98-.399 3-.405 1.02.006 2.04.138 3 .405 2.28-1.552 3.285-1.23 3.285-1.23.645 1.653.24 2.873.12 3.176.765.84 1.23 1.91 1.23 3.22 0 4.61-2.805 5.625-5.475 5.92.43.372.82 1.102.82 2.222v3.293c0 .32.22.694.825.576C24.566 25.797 28 21.3 28 16c0-6.63-5.37-12-12-12z" fill="#FFFFFF"/>
</svg>
